<?xml version="1.0" standalone="no"?>
<!DOCTYPE svg PUBLIC "-//W3C//DTD SVG 20010904//EN"
 "http://www.w3.org/TR/2001/REC-SVG-20010904/DTD/svg10.dtd">
<svg version="1.0" xmlns="http://www.w3.org/2000/svg"
 width="512.000000pt" height="512.000000pt" viewBox="0 0 512.000000 512.000000"
 preserveAspectRatio="xMidYMid meet">
<metadata>
Created by potrace 1.14, written by Peter Selinger 2001-2017
</metadata>
<g transform="translate(0.000000,512.000000) scale(0.100000,-0.100000)"
fill="#000000" stroke="none">
<path d="M3317 4134 c-1 -1 -51 -4 -112 -8 -60 -3 -121 -8 -135 -10 -14 -3
-56 -7 -93 -11 -37 -3 -78 -8 -90 -11 -12 -2 -42 -6 -67 -9 -25 -3 -58 -8 -75
-11 -16 -3 -42 -7 -56 -9 -15 -3 -46 -7 -69 -10 -24 -3 -46 -7 -49 -9 -3 -2
-31 -7 -61 -11 -30 -3 -62 -8 -70 -10 -18 -5 -46 -10 -155 -25 -44 -6 -91 -13
-105 -16 -14 -2 -92 -6 -175 -9 -163 -5 -345 -13 -440 -20 -177 -14 -302 -24
-345 -30 -19 -2 -64 -7 -100 -10 -36 -4 -81 -8 -100 -10 -19 -2 -66 -7 -105
-11 -38 -3 -78 -8 -88 -10 -10 -2 -63 -8 -117 -14 -54 -6 -107 -12 -117 -14
-10 -2 -45 -7 -78 -10 -33 -4 -76 -10 -95 -13 -19 -3 -44 -7 -55 -8 -29 -3
-137 -17 -155 -21 -8 -1 -19 -3 -24 -3 -7 -1 -3 -63 9 -135 2 -11 16 -102 30
-201 14 -99 27 -193 30 -210 5 -37 14 -99 21 -145 2 -19 11 -78 19 -130 7 -52
16 -113 19 -135 6 -45 45 -317 51 -355 7 -46 15 -104 21 -155 3 -27 8 -57 9
-67 2 -9 6 -38 10 -65 4 -26 9 -59 11 -73 2 -14 8 -56 13 -95 6 -38 13 -87 16
-107 3 -21 7 -54 10 -73 3 -19 7 -51 10 -70 3 -19 7 -52 10 -72 3 -21 21 -148
41 -283 19 -135 36 -260 39 -277 6 -41 10 -71 30 -204 8 -59 15 -112 15 -118
0 -7 11 -9 28 -7 24 4 81 12 162 22 59 7 127 16 150 19 14 2 51 7 83 10 32 4
66 8 75 10 9 1 49 6 87 10 39 4 81 8 95 10 36 6 182 21 288 30 34 3 88 7 120
10 136 12 237 17 387 20 264 5 526 31 795 79 14 3 41 7 60 10 19 3 49 8 65 11
77 14 144 25 190 30 28 4 57 8 65 10 54 15 228 19 883 19 l737 1 0 1505 0
1505 -776 0 c-427 0 -776 -1 -777 -1z"/>
</g>
</svg>
